name ./resultDataOpenSim/trcMotMarkerGrf/sub06/grf-14-06.mot
datacolumns 19
datarows 25
range 1.05600000 1.15200000
endheader

                time	     ground_force_vx	     ground_force_vy	     ground_force_vz	     ground_force_px	     ground_force_py	     ground_force_pz	   l_ground_force_vx	   l_ground_force_vy	   l_ground_force_vz	   l_ground_force_px	   l_ground_force_py	   l_ground_force_pz	     ground_torque_x	     ground_torque_y	     ground_torque_z	   l_ground_torque_x	   l_ground_torque_y	   l_ground_torque_z	
          1.05600000	          0.00000000	          0.00000000	          0.00000000	          0.00000000	          0.00000000	          0.00000000	        129.38880428	        655.53475881	          7.38540264	          0.04882957	         -0.07500200	         -0.05469468	          0.00000000	          0.00000000	          0.00000000	          0.00000000	         -3.53847568	          0.00000000	
          1.06000000	          0.00000000	          0.00000000	          0.00000000	          0.00000000	          0.00000000	          0.00000000	        135.88404301	        664.79653985	          6.49402124	          0.04937447	         -0.07500200	         -0.05423079	          0.00000000	          0.00000000	          0.00000000	          0.00000000	         -3.64176285	          0.00000000	
          1.06400000	          0.00000000	          0.00000000	          0.00000000	          0.00000000	          0.00000000	          0.00000000	        142.43836614	        671.43569411	          5.59079051	          0.05000543	         -0.07500200	         -0.05372713	          0.00000000	          0.00000000	          0.00000000	          0.00000000	         -3.72374427	          0.00000000	
          1.06800000	          0.00000000	          0.00000000	          0.00000000	          0.00000000	          0.00000000	          0.00000000	        148.98183736	        675.18392694	          4.68319177	          0.05069780	         -0.07500200	         -0.05319180	          0.00000000	          0.00000000	          0.00000000	          0.00000000	         -3.78253983	          0.00000000	
          1.07200000	          0.00000000	          0.00000000	          0.00000000	          0.00000000	          0.00000000	          0.00000000	        155.41521906	        675.87668379	          3.76109103	          0.05139491	         -0.07500172	         -0.05264813	          0.00000000	          0.00000000	          0.00000000	          0.00000000	         -3.81770968	          0.00000000	
          1.07600000	          0.00000000	          0.00000000	          0.00000000	          0.00000000	          0.00000000	          0.00000000	        161.61462700	        673.46340573	          2.80151033	          0.05204956	         -0.07500100	         -0.05211371	          0.00000000	          0.00000000	          0.00000000	          0.00000000	         -3.83018168	          0.00000000	
          1.08000000	          0.00000000	          0.00000000	          0.00000000	          0.00000000	          0.00000000	          0.00000000	        167.43847522	        667.93963527	          1.78027109	          0.05264488	         -0.07500100	         -0.05159902	          0.00000000	          0.00000000	          0.00000000	          0.00000000	         -3.82186207	          0.00000000	
          1.08400000	          0.00000000	          0.00000000	          0.00000000	          0.00000000	          0.00000000	          0.00000000	        172.72977592	        659.25580052	          0.68229872	          0.05318879	         -0.07500084	         -0.05111287	          0.00000000	          0.00000000	          0.00000000	          0.00000000	         -3.79497640	          0.00000000	
          1.08800000	          0.00000000	          0.00000000	          0.00000000	          0.00000000	          0.00000000	          0.00000000	        177.32020549	        647.27459967	         -0.49336760	          0.05371316	         -0.07499996	         -0.05065855	          0.00000000	          0.00000000	          0.00000000	          0.00000000	         -3.75127850	          0.00000000	
          1.09200000	          0.00000000	          0.00000000	          0.00000000	          0.00000000	          0.00000000	          0.00000000	        181.01841164	        631.77268465	         -1.72747404	          0.05426244	         -0.07499961	         -0.05022916	          0.00000000	          0.00000000	          0.00000000	          0.00000000	         -3.69128387	          0.00000000	
          1.09600000	          0.00000000	          0.00000000	          0.00000000	          0.00000000	          0.00000000	          0.00000000	        183.57617487	        612.49083586	         -2.97559911	          0.05487011	         -0.07499896	         -0.04981790	          0.00000000	          0.00000000	          0.00000000	          0.00000000	         -3.61373332	          0.00000000	
          1.10000000	          0.00000000	          0.00000000	          0.00000000	          0.00000000	          0.00000000	          0.00000000	        184.67670117	        589.20087880	         -4.18326553	          0.05555657	         -0.07499800	         -0.04942046	          0.00000000	          0.00000000	          0.00000000	          0.00000000	         -3.51554782	          0.00000000	
          1.10400000	         -5.57781990	        109.45642885	          4.61151974	          0.72658437	          0.00000000	          0.02468795	        183.96117113	        561.70415081	         -5.31552267	          0.05635125	         -0.07499800	         -0.04904007	          0.00000000	          0.68300858	          0.00000000	          0.00000000	         -3.39241619	          0.00000000	
          1.10800000	        -22.76523026	        301.79796929	         16.50405395	          0.73427542	          0.00000000	          0.02462286	        181.07042826	        529.81778947	         -6.35628715	          0.05729900	         -0.07499708	         -0.04867550	          0.00000000	          0.66778421	          0.00000000	          0.00000000	         -3.23985393	          0.00000000	
          1.11200000	        -42.74638355	        470.85915194	         26.39910286	          0.74156443	          0.00000000	          0.02477660	        175.71295724	        493.47419304	         -7.26493530	          0.05842238	         -0.07499685	         -0.04832556	          0.00000000	          0.60226096	          0.00000000	          0.00000000	         -3.05439015	          0.00000000	
          1.11600000	        -66.84901017	        601.79902950	         32.65033500	          0.74821886	          0.00000000	          0.02529603	        167.74622282	        452.93020010	         -7.94953004	          0.05971310	         -0.07499613	         -0.04800862	          0.00000000	          0.45497298	          0.00000000	          0.00000000	         -2.83468373	          0.00000000	
          1.12000000	        -94.70854188	        690.78405198	         34.54958636	          0.75419914	          0.00000000	          0.02608015	        157.19557571	        408.97728570	         -8.30749521	          0.06120495	         -0.07499520	         -0.04775646	          0.00000000	          0.21715266	          0.00000000	          0.00000000	         -2.58253690	          0.00000000	
          1.12400000	       -124.70037939	        742.38526815	         32.68601151	          0.76007503	          0.00000000	          0.02685256	        144.21894143	        362.97077863	         -8.29647291	          0.06299034	         -0.07499348	         -0.04754424	          0.00000000	         -0.09440550	          0.00000000	          0.00000000	         -2.30356643	          0.00000000	
          1.12800000	       -155.16745218	        764.85680512	         28.52874085	          0.76644954	          0.00000000	          0.02738933	        129.14005403	        316.58821056	         -7.95546060	          0.06512998	         -0.07499228	         -0.04732678	          0.00000000	         -0.44293649	          0.00000000	          0.00000000	         -2.00700561	          0.00000000	
          1.13200000	       -184.67225270	        767.30691879	         23.62386172	          0.77321730	          0.00000000	          0.02762981	        112.57231743	        271.50120234	         -7.36259131	          0.06762995	         -0.07499268	         -0.04708003	          0.00000000	         -0.78391391	          0.00000000	          0.00000000	         -1.70444616	          0.00000000	
          1.13600000	       -211.67227568	        759.32569892	         19.03433706	          0.77969476	          0.00000000	          0.02760459	         95.47464430	        229.16495184	         -6.59462778	          0.07040940	         -0.07499300	         -0.04679805	          0.00000000	         -1.08048144	          0.00000000	          0.00000000	         -1.40810751	          0.00000000	
          1.14000000	       -235.05883780	        750.60528999	         15.19276924	          0.78533897	          0.00000000	          0.02737826	         79.00704103	        190.67678768	         -5.72450964	          0.07329846	         -0.07499240	         -0.04646561	          0.00000000	         -1.31677456	          0.00000000	          0.00000000	         -1.12940370	          0.00000000	
          1.14400000	       -254.89753140	        749.17962405	         12.09568014	          0.79026498	          0.00000000	          0.02705697	         64.22589042	        156.61366491	         -4.82047014	          0.07601281	         -0.07499200	         -0.04604986	          0.00000000	         -1.50272107	          0.00000000	          0.00000000	         -0.87793841	          0.00000000	
          1.14800000	       -271.80261586	        759.48729597	          9.70961110	          0.79482493	          0.00000000	          0.02674760	         51.76687539	        126.96447256	         -3.92688728	          0.07819253	         -0.07499287	         -0.04554431	          0.00000000	         -1.66728836	          0.00000000	          0.00000000	         -0.66061502	          0.00000000	
          1.15200000	       -285.61724646	        781.79912968	          8.25113361	          0.79885560	          0.00000000	          0.02649131	         41.68776924	        101.28376920	         -3.05635763	          0.07954106	         -0.07499471	         -0.04500457	          0.00000000	         -1.84355023	          0.00000000	          0.00000000	         -0.48087588	          0.00000000	
